<?xml version="1.0" encoding="utf-8"?>
<!-- Generator: Adobe Illustrator 16.0.0, SVG Export Plug-In . SVG Version: 6.00 Build 0)  -->
<!DOCTYPE svg PUBLIC "-//W3C//DTD SVG 1.1//EN" "http://www.w3.org/Graphics/SVG/1.1/DTD/svg11.dtd">
<svg version="1.1" id="Layer_1" xmlns="http://www.w3.org/2000/svg" xmlns:xlink="http://www.w3.org/1999/xlink" x="0px" y="0px"
	 width="322.79px" height="90.09px" viewBox="0 0 322.79 90.09" enable-background="new 0 0 322.79 90.09" xml:space="preserve">
<g>
	<polygon fill="none" points="217.17,66.252 215.062,59.754 212.926,66.252 	"/>
	<path fill="none" d="M263.167,65.32c0-3.519-1.896-7.728-5.832-7.73c-4.158,0.004-5.392,3.691-5.397,6.92
		c0.004,4.32,1.974,8.373,5.808,8.387C262.358,72.893,263.155,68.852,263.167,65.32z"/>
	<polygon fill="none" points="296.31,66.248 294.197,59.758 292.068,66.248 	"/>
	<path fill="none" d="M122.967,45.641c9.626,0,12.784-7.259,12.784-13.897c0-8.327-5.344-14.343-13.945-14.343
		c-1.825,0-2.668,0.127-3.475,0.178v24.234C118.331,45.245,120.785,45.641,122.967,45.641z"/>
	<path fill="none" d="M177.493,57.754c-0.656,0-0.963,0.059-1.271,0.092v7.023h1.078c2.396-0.025,3.611-0.855,3.632-3.674
		C180.918,59.082,179.6,57.768,177.493,57.754z"/>
	<path fill="none" d="M187.922,32.234c0-2.274-1.379-4.102-3.875-4.102c-2.715,0-4.584,2.004-5.119,5.214h7.757
		C187.793,33.346,187.922,32.767,187.922,32.234z"/>
	<path fill="none" d="M306.62,46.578c4.77,0,6.771-4.681,6.771-8.647c0-4.809-3.654-8.817-7.127-8.817
		c-1.656,0-3.033,1.071-4.238,2.101v10.82C302.026,43.727,303.627,46.578,306.62,46.578z"/>
	<path fill="none" d="M317.852,56.568c-1.148,0-2.021,0.984-2.021,2.082c0,1.1,0.873,2.07,2.021,2.07
		c1.145,0,2.021-0.971,2.021-2.07C319.874,57.553,319.012,56.568,317.852,56.568z M319.141,59.997h-0.498
		c-0.236,0-0.443-0.502-0.914-1.172h-0.281v0.842c0,0.174,0.059,0.162,0.369,0.203v0.127h-1.232v0.001v-0.001v-0.126
		c0.312-0.041,0.373-0.029,0.373-0.229v-1.89c0-0.269-0.029-0.358-0.363-0.344v-0.132h1.311c0.441,0,0.857,0.22,0.857,0.679
		c0,0.385-0.248,0.662-0.604,0.771l0.416,0.586c0.199,0.263,0.42,0.517,0.566,0.603V59.997z"/>
	<path fill="none" d="M317.731,57.453h-0.281v1.197h0.297c0.332,0,0.484-0.246,0.484-0.648
		C318.231,57.594,317.989,57.453,317.731,57.453z"/>
	<path fill="#FFFFFF" d="M45.202,6.191C23.786,6.199,6.436,23.556,6.43,44.972C6.436,66.385,23.786,83.736,45.202,83.74
		c21.418-0.004,38.773-17.355,38.779-38.769C83.975,23.556,66.62,6.199,45.202,6.191z M36.399,67.9
		c-9.215-3.545-15.75-12.463-15.775-22.928c0.025-10.469,6.56-19.389,15.775-22.938V67.9z M53.997,67.909V22.031
		c9.223,3.537,15.769,12.467,15.787,22.941C69.766,55.445,63.219,64.369,53.997,67.909z"/>
	<path fill="#231F20" d="M122.3,47.07c15.77,0,18.352-11.092,18.352-15.504c0-7.891-6.282-15.591-17.818-15.591
		c-3.297,0-5.838,0.082-7.708,0.082c-1.739,0-3.522,0-5.255-0.082v1.152c2.002,0.047,4.095-0.219,4.095,3.788h-0.001v21.611
		c-0.132,3.029-1.429,3.113-4.095,3.382v1.162c2.002-0.04,3.963-0.088,5.97-0.088C117.93,46.982,120.032,47.07,122.3,47.07z
		 M118.331,17.578c0.807-0.051,1.65-0.178,3.475-0.178c8.601,0,13.945,6.016,13.945,14.343c0,6.639-3.158,13.897-12.784,13.897
		c-2.182,0-4.636-0.396-4.636-3.829V17.578z"/>
	<path fill="#231F20" d="M147.075,46.984c1.6,0,3.159,0.088,4.674,0.088v-1.163h-0.756c-1.245,0-2.227,0-2.227-1.474V27.331
		c0-0.355-0.092-0.62-0.311-0.62c-0.227,0-0.489,0.045-0.803,0.219c-0.18,0.14-2.674,0.979-4.77,1.606v0.716
		c1.652,0.884,2.318,1.152,2.318,3.115v12.067c0,1.474-0.892,1.474-2.139,1.474h-0.843v1.164
		C143.866,47.031,145.47,46.984,147.075,46.984z"/>
	<path fill="#231F20" d="M146.985,19.85c1.201,0,2.183-1.026,2.184-2.227c0-1.207-1.028-2.145-2.184-2.145
		c-1.118,0-2.186,1.03-2.186,2.145C144.799,18.78,145.823,19.85,146.985,19.85z"/>
	<path fill="#231F20" d="M175.411,45.907h-0.807c-1.243,0-2.227,0-2.227-1.474V32.944c0-3.473-1.334-6.234-5.121-6.234
		c-2.985,0-5.17,1.513-7.713,3.343v-2.905c0-0.351-0.132-0.438-0.265-0.438c-2.141,0.93-3.967,1.513-5.879,2.136v0.851
		c2.094,0.844,2.582,1.289,2.582,2.934h0.002v11.803c0,1.474-0.889,1.474-2.134,1.474h-0.808v1.162
		c1.604-0.041,3.211-0.088,4.809-0.088c1.605,0,3.17,0.088,4.73,0.088v-1.162h-0.803c-1.248,0-2.234,0-2.234-1.474v-13.18
		c1.477-0.983,3.744-2.141,5.171-2.141c2.543,0,4.097,1.246,4.097,3.79v11.53c0,1.474-0.888,1.474-2.133,1.474h-0.804v1.163
		c1.604-0.041,3.207-0.088,4.813-0.088c1.601,0,3.158,0.088,4.722,0.088V45.907z"/>
	<path fill="#231F20" d="M183.745,47.736c3.65,0,6.187-2.314,8.238-5.033l-0.625-0.624c-1.646,1.648-3.564,2.987-6.016,2.987
		c-3.562,0-6.284-3.476-6.545-7.709c-0.096-1.516-0.096-2.182,0-2.583v0.002h12.515l0.405-0.267
		c0.039-0.271,0.039-0.534,0.039-0.807c-0.039-4.721-3.92-6.99-7.529-6.99c-3.116,0-8.994,2.583-8.994,11.315
		C175.233,40.878,176.657,47.736,183.745,47.736z M184.047,28.132c2.496,0,3.875,1.828,3.875,4.102c0,0.533-0.129,1.112-1.237,1.112
		h-7.757C179.463,30.136,181.333,28.132,184.047,28.132z"/>
	<path fill="#231F20" d="M204.322,47.07v-1.162h-2.493c-1.25,0-2.139,0-2.139-1.474v-10.46c0-2.679,2.495-3.702,3.251-3.702
		c1.558,0,1.558,1.074,2.942,1.074c1.25,0,2.092-1.074,2.092-2.276c0-1.608-1.424-2.359-2.535-2.359
		c-2.718,0-4.591,2.851-5.699,4.585h-0.097v-4.007c0-0.449-0.133-0.578-0.396-0.578c-0.402,0-2.19,1.156-5.44,2.541v0.661
		c0.668,0.36,2.312,0.628,2.312,2.008v12.513c0,1.474-0.884,1.474-2.129,1.474h-1.207v1.162c1.607-0.041,3.478-0.088,5.305-0.088
		C200.004,46.982,201.872,47.029,204.322,47.07z"/>
	<path fill="#231F20" d="M215.551,46.312c-3.254,0-5.034-2.499-5.619-5.435l-0.799,0.221l0.49,5.127
		c1.559,0.889,3.648,1.51,5.438,1.51c5.3,0,7.661-3.121,7.661-6.06c0-6.993-10.334-5.387-10.334-10.604
		c0-1.912,1.689-2.941,3.473-2.941c2.852,0,4.413,1.608,4.855,4.413h1.027L221.43,28c-1.737-0.888-3.653-1.289-5.076-1.289
		c-4.898,0-6.907,3.202-6.907,5.702c0,7.167,9.703,5.482,9.703,10.735C219.15,44.707,218.174,46.312,215.551,46.312z"/>
	<path fill="#231F20" d="M261.977,45.375l1.02-6.505l-1.02-0.266c-0.895,4.68-4.551,7.708-8.959,7.708
		c-6.854,0-13.28-6.459-13.28-15.466c0-10.688,7.443-14.117,12.571-14.117c4.984,0,8.684,2.095,9.527,7.305h1.113l-0.443-6.369
		c-3.43-1.203-6.9-2.365-10.512-2.365c-8.736,0-16.883,6.554-16.883,15.687c0,10.022,6.588,16.75,17.012,16.75
		C255.065,47.736,260.105,46.538,261.977,45.375z"/>
	<path fill="#231F20" d="M274.09,47.072v-1.163h-0.756c-1.246,0-2.229,0-2.229-1.474V13.657c0-0.359-0.084-0.628-0.354-0.628
		c-0.131,0-0.492,0.228-0.979,0.491c-0.938,0.541-2.811,1.34-4.589,1.918v0.714c1.692,0.488,2.36,0.578,2.36,3.479v24.803
		c0,1.474-0.892,1.474-2.141,1.474h-0.85v1.164c1.656-0.041,3.259-0.088,4.857-0.088C271.02,46.984,272.583,47.072,274.09,47.072z"
		/>
	<path fill="#231F20" d="M276.765,31.033v11.41c0,3.739,2.491,5.293,4.896,5.293c3.164,0,5.221-1.555,7.891-3.735v3.603l0.22,0.133
		c0.853-0.268,4.503-1.198,6.424-1.379v-0.936c-0.579,0-1.253,0.041-1.784,0.041c-0.762,0-1.246-0.041-1.246-0.848h-0.002V28.182
		c0-0.491,0-0.8-0.356-0.8c-0.442,0-2.94,0.35-6.948,0.618v0.803c1.598,0.449,3.734,0.938,3.734,1.825V42.62
		c-1.868,1.549-3.873,2.709-5.385,2.709c-3.873,0-3.873-3.833-3.873-5.168V28.669c0-0.979,0-1.288-0.494-1.288
		c-0.586,0-4.139,0.259-5.746,0.309v0.846C276.583,28.756,276.765,29.872,276.765,31.033z"/>
	<path fill="#231F20" d="M298.461,19.631v19.152c0,2.715-0.225,5.305-0.617,7.933l0.93,0.486l1.338-1.021
		c1.16,0.489,2.893,1.555,6.188,1.555c6.379,0,10.654-5.838,10.654-11.671c0-4.85-3.119-9.354-8.287-9.354
		c-2.448,0-4.855,1.693-6.639,3.201v0.001h-0.002c0.001,0,0.001-0.001,0.002-0.001V13.657c0-0.359-0.084-0.628-0.354-0.628
		c-0.137,0-0.498,0.228-0.982,0.491c-0.939,0.541-2.803,1.34-4.591,1.918v0.714C297.795,16.64,298.461,16.73,298.461,19.631z
		 M302.026,31.215c1.205-1.03,2.582-2.101,4.238-2.101c3.473,0,7.127,4.008,7.127,8.817c0,3.966-2.002,8.647-6.771,8.647
		c-2.992,0-4.594-2.851-4.594-4.543V31.215z"/>
	<polygon fill="#231F20" points="302.028,29.913 302.028,29.912 302.026,29.913 	"/>
	<path fill="#231F20" d="M109.928,56.887v0.516h0.233c0.862,0,1.896,0.15,1.896,1.488V71.59c0,1.34-1.034,1.492-1.896,1.492h-0.233
		v0.516c0.938-0.012,2.31-0.1,3.458-0.1c1.179,0,2.583,0.09,3.723,0.1l0.003-0.516h-0.234c-0.866,0-1.9-0.152-1.903-1.492V58.891
		c0.003-1.338,1.037-1.488,1.903-1.488h0.231v-0.516c-1.119,0-2.522,0.096-3.698,0.096
		C112.261,56.982,110.866,56.891,109.928,56.887z"/>
	<path fill="#231F20" d="M113.411,56.771c-1.187,0-2.639-0.096-3.59-0.096h-0.107v0.836v0.098h0.447
		c0.879,0.018,1.68,0.096,1.686,1.281V71.59c-0.006,1.186-0.807,1.26-1.686,1.281h-0.34h-0.107v0.104V73.7v0.104h0.107
		c0.951,0,2.376-0.094,3.564-0.094c1.205,0,2.658,0.094,3.828,0.094h0.109v-0.83v-0.104h-0.444c-0.88-0.021-1.687-0.096-1.691-1.281
		V58.891c0.003-1.186,0.81-1.264,1.691-1.281h0.336h0.108v-0.826v-0.107h-0.108C116.067,56.676,114.618,56.771,113.411,56.771z
		 M117.214,57.512h-0.338c-0.871,0-1.796,0.115-1.796,1.379V71.59c0,1.264,0.925,1.381,1.796,1.381h0.338V73.7
		c-1.162,0-2.619-0.095-3.828-0.095c-1.189,0-2.617,0.095-3.564,0.095v-0.729h-0.001h0.001h0.339c0.87,0,1.794-0.117,1.794-1.381
		V58.891c0-1.264-0.924-1.379-1.794-1.379h-0.34v-0.736c0.947,0,2.398,0.101,3.59,0.101c1.211,0,2.665-0.101,3.803-0.101V57.512z"/>
	<path fill="#231F20" d="M109.821,56.775v0.736h0.34c0.87,0,1.794,0.115,1.794,1.379V71.59c0,1.264-0.924,1.381-1.794,1.381h-0.339
		V73.7c0.947,0,2.375-0.095,3.564-0.095c1.209,0,2.666,0.095,3.828,0.095v-0.729h-0.338c-0.871,0-1.796-0.117-1.796-1.381V58.891
		c0-1.264,0.925-1.379,1.796-1.379h0.338v-0.736c-1.138,0-2.592,0.101-3.803,0.101C112.219,56.876,110.768,56.775,109.821,56.775z
		 M117.109,57.402h-0.231c-0.866,0-1.9,0.15-1.903,1.488V71.59c0.003,1.34,1.037,1.492,1.903,1.492h0.234l-0.003,0.516
		c-1.14-0.01-2.544-0.1-3.723-0.1c-1.148,0-2.52,0.088-3.458,0.1v-0.516h0.233c0.862,0,1.896-0.152,1.896-1.492V58.891
		c0-1.338-1.034-1.488-1.896-1.488h-0.233v-0.516c0.938,0.004,2.333,0.096,3.483,0.096c1.176,0,2.579-0.096,3.698-0.096V57.402z"/>
	<polygon fill="#231F20" points="133.811,68.867 133.791,68.852 133.811,68.875 	"/>
	<path fill="#231F20" d="M131.382,56.886v0.517h0.424c0.746,0,2.216,0.332,2.216,2.385l-0.028,9.162l-0.054,0.047l-0.083,0.078
		L123.08,56.886c-0.72,0-1.422,0.097-2.159,0.097c-0.886,0-1.802-0.092-2.678-0.097l-0.004,0.517h0.212
		c1.137,0,2.309,0.869,2.309,2.287v10.207c0,1.94-0.539,3.178-2.284,3.186l-0.232-0.008v0.523c1.048-0.013,2.126-0.101,3.186-0.101
		c1.017,0,2.022,0.088,3.022,0.101v-0.517h-0.306c-1.908-0.008-2.382-0.834-2.382-2.947V59.879l12.588,14.078h0.802
		c-0.109-0.727-0.126-1.537-0.126-2.338V60.586c0-2.91,1.216-3.184,2.262-3.184h0.256v-0.517c-0.959,0.005-1.912,0.097-2.875,0.097
		C133.56,56.982,132.48,56.891,131.382,56.886z"/>
	<path fill="#231F20" d="M134.668,56.771c-1.136,0-2.253-0.096-3.396-0.096h-0.109v0.826v0.107h0.641
		c0.708,0.018,1.993,0.248,2.006,2.178v8.916l-10.65-11.99c-0.818-0.037-1.519,0.059-2.241,0.059c-0.915,0-1.86-0.096-2.788-0.096
		h-0.105v0.826v0.107h0.424c1.042,0.004,2.1,0.789,2.104,2.08v10.207c-0.02,1.935-0.475,2.961-2.079,2.976h-0.343h-0.105V73.7v0.104
		h0.105c1.1,0,2.216-0.094,3.296-0.094c1.036,0,2.081,0.094,3.13,0.094h0.106v-0.834v-0.1h-0.52
		c-1.821-0.025-2.145-0.623-2.173-2.736v-9.711l12.303,13.711l1,0.037v0.001h0.12l-0.021-0.123c-0.119-0.741-0.142-1.588-0.142-2.43
		V60.587c0.028-2.856,1.053-2.948,2.057-2.978h0.357h0.109v-0.834v-0.1h-0.109C136.647,56.676,135.65,56.771,134.668,56.771z
		 M137.648,57.512h-0.357c-1.02,0-2.164,0.188-2.164,3.074v11.033c0,0.846,0.028,1.693,0.148,2.445h-0.922L121.868,60.15v9.983
		c0,2.117,0.408,2.836,2.276,2.836h0.413v0.729c-1.042,0-2.086-0.094-3.13-0.094c-1.085,0-2.203,0.094-3.293,0.094V72.97h0.34
		c1.673,0,2.183-1.133,2.183-3.073V59.689c0-1.359-1.119-2.179-2.207-2.179h-0.315v-0.735c0.921,0,1.866,0.1,2.785,0.1
		c0.729,0,1.436-0.1,2.159-0.1l10.791,12.15l0.049-0.051v-9.088c0-1.988-1.385-2.275-2.113-2.275h-0.531v-0.736
		c1.139,0,2.256,0.101,3.396,0.101c0.991,0,1.989-0.101,2.977-0.101V57.512z"/>
	<path fill="#231F20" d="M131.275,56.775v0.736h0.531c0.728,0,2.113,0.287,2.113,2.275v9.088l-0.049,0.051l0.078-0.07l-0.078,0.07
		l-10.791-12.15c-0.723,0-1.43,0.1-2.159,0.1c-0.919,0-1.864-0.1-2.785-0.1v0.735h0.315c1.088,0,2.207,0.819,2.207,2.179v10.207
		c0,1.94-0.51,3.073-2.183,3.073h-0.34v0.729c1.09,0,2.208-0.094,3.293-0.094c1.044,0,2.088,0.094,3.13,0.094V72.97h-0.413
		c-1.868,0-2.276-0.719-2.276-2.836V60.15l12.485,13.914h0.922c-0.12-0.752-0.148-1.6-0.148-2.445V60.586
		c0-2.886,1.144-3.074,2.164-3.074h0.357v-0.736c-0.988,0-1.986,0.101-2.977,0.101C133.531,56.876,132.414,56.775,131.275,56.775z
		 M133.811,68.867v0.008l-0.02-0.023L133.811,68.867z M137.546,57.402h-0.256c-1.046,0-2.262,0.273-2.262,3.184v11.033
		c0,0.801,0.017,1.611,0.126,2.338h-0.802l-12.588-14.078v10.255c0,2.113,0.474,2.939,2.382,2.947h0.306v0.517
		c-1-0.013-2.005-0.101-3.022-0.101c-1.06,0-2.138,0.088-3.186,0.101v-0.523l0.232,0.008c1.745-0.008,2.284-1.245,2.284-3.186
		V59.689c0-1.418-1.172-2.287-2.309-2.287h-0.212l0.004-0.517c0.876,0.005,1.792,0.097,2.678,0.097c0.737,0,1.439-0.097,2.159-0.097
		l10.777,12.188l0.083-0.078l0.054-0.047l0.028-9.162c0-2.053-1.47-2.385-2.216-2.385h-0.424v-0.517
		c1.098,0.005,2.178,0.097,3.289,0.097c0.963,0,1.916-0.092,2.875-0.097V57.402z"/>
	<path fill="#231F20" d="M145.361,57.886v13.056c0,1.94-0.785,2.141-2.117,2.141h-0.355v0.512c0.958-0.008,2.586-0.096,3.992-0.096
		c1.268,0,2.887,0.088,3.845,0.096v-0.512h-0.352c-1.173,0-2.121-0.287-2.121-2.195v-13h4.083c1.629,0.004,1.842,1.383,1.893,2.285
		l0.529-0.193c0-0.629,0.004-1.266,0.044-1.905c0.067-0.619,0.158-1.238,0.249-1.859l-0.367-0.062
		c-0.121,0.703-0.798,0.742-1.405,0.734h-12.503c-0.049,0-0.09,0-0.128,0c-0.57,0-1.189-0.027-1.404-0.701h-0.405
		c0,0.67-0.049,1.316-0.145,1.965c-0.068,0.668-0.178,1.306-0.268,1.943h0.518c0.322-1.686,0.526-2.236,2.333-2.207v-0.001H145.361z
		"/>
	<path fill="#231F20" d="M154.496,55.908l-0.008,0.113c-0.042,0.633-0.535,0.644-1.209,0.655h-12.503c-0.049,0-0.086,0-0.128,0
		c-0.619-0.012-1.061-0.016-1.231-0.627l-0.016-0.077h-0.666h-0.101v0.106c0,0.692-0.047,1.366-0.147,2.041
		c-0.073,0.707-0.199,1.383-0.293,2.062l-0.017,0.123h0.847h0.092l0.012-0.082c0.4-1.791,0.36-2.091,2.15-2.128v-0.001h-0.001V57.99
		c-1.818,0-1.885,0.439-2.253,2.205h-0.725c0.098-0.678,0.217-1.354,0.295-2.062c0.094-0.678,0.141-1.358,0.141-2.057h0.585
		c0.196,0.728,0.8,0.696,1.456,0.696h12.508c0.652,0,1.26-0.02,1.309-0.746l0.577,0.099c-0.089,0.647-0.188,1.308-0.263,1.961
		c-0.05,0.654-0.05,1.312-0.05,1.963l-0.726,0.273c-0.047-0.9-0.17-2.334-1.795-2.334h-3.974v12.896
		c0,1.873,0.853,2.084,2.012,2.084h0.46v0.729c-0.945,0-2.645-0.095-3.953-0.095c-1.449,0-3.151,0.095-4.098,0.095v-0.729h0.461
		c1.336,0,2.01-0.117,2.01-2.029V57.99h-3.976v0.001v0.103h3.87v12.848c-0.027,1.879-0.568,1.897-1.904,1.931h-0.461h-0.103V73.7
		v0.104h0.103c0.954,0,2.649-0.094,4.098-0.094c1.305,0,3,0.094,3.957,0.094h0.099v-0.834v-0.1h-0.562
		c-1.155-0.025-1.884-0.154-1.908-1.984V58.094h3.87c1.531,0,1.629,1.322,1.694,2.23l0.004,0.145l0.86-0.313l0.07-0.029v-0.074
		c0-0.651,0-1.309,0.049-1.957c0.071-0.647,0.165-1.303,0.26-1.954l0.014-0.104l-0.682-0.104L154.496,55.908z"/>
	<polygon fill="#231F20" points="141.278,57.99 141.277,57.99 141.277,58.094 141.278,58.094 141.278,57.991 	"/>
	<polygon fill="#231F20" points="141.278,57.887 141.277,57.887 141.277,57.99 141.277,57.99 141.278,57.99 	"/>
	<path fill="#231F20" d="M141.277,57.887c-1.807-0.029-2.011,0.521-2.333,2.207h-0.518c0.09-0.638,0.2-1.275,0.268-1.943
		c0.096-0.648,0.145-1.295,0.145-1.965h0.405c0.215,0.674,0.834,0.701,1.404,0.701c0.038,0,0.079,0,0.128,0h12.503
		c0.607,0.008,1.284-0.031,1.405-0.734l0.367,0.062c-0.091,0.621-0.182,1.24-0.249,1.859c-0.04,0.64-0.044,1.276-0.044,1.905
		l-0.529,0.193c-0.051-0.902-0.264-2.281-1.893-2.285h-4.083v13c0,1.908,0.948,2.195,2.121,2.195h0.352v0.512
		c-0.958-0.008-2.577-0.096-3.845-0.096c-1.406,0-3.034,0.088-3.992,0.096v-0.512h0.355c1.332,0,2.117-0.2,2.117-2.141V57.886
		L141.277,57.887L141.277,57.887C141.277,57.887,141.277,57.887,141.277,57.887l0.001,0.104h3.976v12.949
		c0,1.912-0.674,2.029-2.01,2.029h-0.461v0.729c0.947,0,2.649-0.095,4.098-0.095c1.308,0,3.008,0.095,3.953,0.095v-0.729h-0.46
		c-1.159,0-2.012-0.211-2.012-2.084V57.989h3.974c1.625,0,1.748,1.434,1.795,2.334l0.726-0.273c0-0.651,0-1.309,0.05-1.963
		c0.075-0.653,0.174-1.313,0.263-1.961l-0.577-0.099c-0.049,0.727-0.657,0.746-1.309,0.746h-12.508c-0.656,0-1.26,0.031-1.456-0.696
		h-0.585c0,0.698-0.047,1.379-0.141,2.057c-0.078,0.707-0.197,1.384-0.295,2.062h0.725c0.368-1.766,0.435-2.205,2.253-2.205l0,0
		V57.887z"/>
	<path fill="#231F20" d="M164.141,72.739c-1.53,0-3.058,0-3.065-1.683v-5.75h3.016c1.693-0.021,1.863,1.002,1.984,2.383l0.522-0.106
		c-0.045-0.892-0.067-1.793-0.067-2.681c0-0.907,0.022-1.817,0.067-2.733h-0.522c-0.136,1.267-0.529,2.151-2.011,2.136h-2.99V57.74
		h3.479c2.521-0.012,2.941,1.289,3.044,2.809l0.524-0.139c-0.041-0.688-0.065-1.559-0.065-2.367c0-0.422,0.009-0.811,0.021-1.154
		c-1.648,0.004-4.104,0.096-6.096,0.096c-1.991,0-4.447-0.092-5.931-0.096v0.517h0.236c0.863,0,1.895,0.149,1.898,1.487V71.59
		c-0.004,1.34-1.035,1.484-1.898,1.492h-0.236v0.512c1.408-0.006,4.215-0.096,6.341-0.096c2.141,0,4.867,0.09,6.436,0.096
		c0.207-1.223,0.484-2.449,0.787-3.668l-0.482-0.121C168.407,72.518,167.002,72.76,164.141,72.739z"/>
	<path fill="#231F20" d="M168.979,69.549l-0.023,0.1c-0.729,2.724-1.896,2.867-4.817,2.884c-1.582-0.009-2.849,0-2.854-1.476V65.51
		l2.806,0.004c1.609,0.021,1.617,0.83,1.785,2.31l0.01,0.112l0.845-0.168l0.086-0.02v-0.082c-0.049-0.926-0.078-1.848-0.078-2.764
		c0-0.947,0.029-1.889,0.078-2.834v-0.107h-0.838h-0.093l-0.01,0.094c-0.166,1.307-0.412,2.023-1.812,2.033h-2.779v-6.135h3.268
		c2.501,0.02,2.707,1.166,2.851,2.734l0.005,0.129l0.85-0.224l0.08-0.024v-0.086c-0.047-0.691-0.075-1.609-0.075-2.441
		c0-0.463,0.008-0.895,0.028-1.258v-0.107h-0.108c-1.647,0-4.166,0.096-6.2,0.096c-2.031,0-4.557-0.096-6.034-0.096h-0.107v0.836
		v0.098h0.447c0.875,0.021,1.676,0.1,1.686,1.281V71.59c-0.01,1.186-0.811,1.264-1.686,1.281h-0.34h-0.107v0.1V73.7v0.104h0.107
		c1.384,0,4.263-0.102,6.444-0.102c2.18,0,4.966,0.102,6.523,0.102H169l0.018-0.086c0.217-1.281,0.505-2.566,0.818-3.848l0.022-0.1
		l-0.776-0.201L168.979,69.549z M168.918,73.701c-1.551,0-4.34-0.094-6.524-0.094c-2.181,0-5.063,0.094-6.444,0.094v-0.73h-0.002
		h0.002h0.338c0.87,0,1.791-0.117,1.791-1.381V58.891c0-1.264-0.921-1.379-1.791-1.379h-0.34v-0.736
		c1.473,0,4.003,0.101,6.034,0.101c2.039,0,4.558-0.101,6.2-0.101c-0.038,1.045-0.016,2.648,0.059,3.714l-0.734,0.194
		c-0.113-1.574-0.407-2.834-2.952-2.834h-3.361v6.346h2.873c1.459,0,1.776-0.817,1.919-2.127h0.723
		c-0.045,0.945-0.07,1.888-0.07,2.834c0,0.925,0.025,1.843,0.07,2.765l-0.723,0.144c-0.143-1.451-0.217-2.398-1.893-2.398h-2.899
		v5.646c0,1.58,1.399,1.58,2.948,1.58c2.914,0,4.193-0.195,4.921-2.959l0.679,0.168C169.424,71.136,169.135,72.413,168.918,73.701z"
		/>
	<path fill="#231F20" d="M164.141,72.639c-1.549,0-2.948,0-2.948-1.58v-5.646h2.899c1.676,0,1.75,0.947,1.893,2.398l0.723-0.144
		c-0.045-0.922-0.07-1.84-0.07-2.765c0-0.946,0.025-1.889,0.07-2.834h-0.723c-0.143,1.31-0.46,2.127-1.919,2.127h-2.873V57.85h3.361
		c2.545,0,2.839,1.26,2.952,2.834l0.734-0.194c-0.074-1.065-0.097-2.669-0.059-3.714c-1.643,0-4.161,0.101-6.2,0.101
		c-2.031,0-4.561-0.101-6.034-0.101v0.736h0.34c0.87,0,1.791,0.115,1.791,1.379V71.59c0,1.264-0.921,1.381-1.791,1.381h-0.338v0.73
		c1.381,0,4.263-0.094,6.444-0.094c2.185,0,4.974,0.094,6.524,0.094c0.217-1.288,0.506-2.565,0.822-3.854l-0.679-0.168
		C168.334,72.443,167.055,72.639,164.141,72.639z M169.616,69.926c-0.303,1.219-0.58,2.445-0.787,3.668
		c-1.568-0.006-4.295-0.096-6.436-0.096c-2.126,0-4.933,0.09-6.341,0.096v-0.512h0.236c0.863-0.008,1.894-0.152,1.898-1.492V58.893
		c-0.003-1.338-1.035-1.487-1.898-1.487h-0.236v-0.517c1.484,0.004,3.94,0.096,5.931,0.096c1.991,0,4.447-0.092,6.096-0.096
		c-0.012,0.344-0.021,0.732-0.021,1.154c0,0.809,0.024,1.68,0.065,2.367l-0.524,0.139c-0.103-1.52-0.522-2.82-3.044-2.809h-3.479
		v6.564h2.99c1.481,0.016,1.875-0.869,2.011-2.136h0.522c-0.045,0.916-0.067,1.826-0.067,2.733c0,0.888,0.022,1.789,0.067,2.681
		l-0.522,0.106c-0.121-1.381-0.291-2.403-1.984-2.383h-3.016v5.75c0.007,1.683,1.535,1.683,3.065,1.683
		c2.861,0.021,4.266-0.222,4.992-2.935L169.616,69.926z"/>
	<path fill="#231F20" d="M184.972,71.579l-4.222-6.312l0.123-0.05c1.896-0.748,3.299-2.043,3.305-4.174
		c-0.006-3.358-2.62-4.146-5.664-4.155c-1.278,0-2.448,0.096-3.902,0.096c-1.429,0-2.865-0.092-3.656-0.096v0.516h0.336
		c0.75,0,1.818,0.125,1.818,1.947v12.315c0,0.976-0.906,1.416-1.818,1.416h-0.336v0.512c1.168-0.006,2.269-0.096,3.407-0.096
		c1.358,0,2.724,0.09,4.065,0.096v-0.512h-0.33c-1.104,0-2.092-0.138-2.092-2.051V65.74h0.106h1.657l0.025,0.055
		c1.58,2.789,3.175,5.402,4.961,7.803c0.74,0,1.52-0.1,2.271-0.1c0.774,0,1.524,0.084,2.276,0.096v-0.533
		C186.165,72.924,185.633,72.582,184.972,71.579z M177.299,65.076h-1.187h-0.104v-7.424l0.093-0.01
		c0.33-0.029,0.655-0.091,1.392-0.091c2.205,0,3.646,1.433,3.648,3.644C181.131,64.088,179.745,65.076,177.299,65.076z"/>
	<path fill="#231F20" d="M177.493,57.652c-0.731,0-1.041,0.078-1.375,0.099v7.222h1.182c2.43,0,3.734-0.918,3.734-3.781
		C181.034,59.04,179.651,57.652,177.493,57.652z M177.299,64.869h-1.078v-7.023c0.309-0.033,0.615-0.092,1.271-0.092
		c2.107,0.014,3.426,1.328,3.438,3.441C180.911,64.014,179.696,64.844,177.299,64.869z"/>
	<path fill="#231F20" d="M185.145,71.459l-4.072-6.098c1.869-0.762,3.318-2.129,3.318-4.318c-0.01-3.516-2.824-4.367-5.876-4.367
		c-1.292,0-2.459,0.096-3.902,0.096c-1.478,0-2.975-0.096-3.765-0.096h-0.1v0.836v0.098h0.543c0.75,0.025,1.594,0.021,1.609,1.74
		v12.318c-0.007,0.816-0.738,1.195-1.609,1.205h-0.443h-0.1v0.828v0.105h0.1c1.222,0,2.355-0.095,3.516-0.095
		c1.372,0,2.781,0.095,4.168,0.095h0.112v-0.834v-0.101h-0.545c-1.121-0.028-1.854-0.015-1.879-1.84v-5.078h1.432
		c1.568,2.769,3.163,5.373,5.019,7.813c0.842,0.037,1.621-0.057,2.357-0.057c0.799,0,1.57,0.094,2.383,0.094h0.1v-0.834v-0.092
		l-0.09-0.008C186.241,72.717,185.823,72.465,185.145,71.459z M187.411,73.699c-0.799,0-1.572-0.094-2.373-0.094
		c-0.757,0-1.531,0.094-2.279,0.094c-1.865-2.443-3.469-5.062-5.047-7.855h-1.594v5.188c0,1.873,0.87,1.938,1.982,1.938h0.441V73.7
		c-1.389,0-2.791-0.095-4.174-0.095c-1.164,0-2.302,0.095-3.52,0.095v-0.729h0.443c0.893,0,1.723-0.406,1.723-1.305V59.35
		c0-1.771-0.973-1.838-1.723-1.838h-0.443v-0.736c0.777,0,2.281,0.101,3.765,0.101c1.447,0,2.614-0.101,3.902-0.101
		c3.048,0,5.765,0.826,5.765,4.271c0,2.182-1.449,3.512-3.365,4.273l4.146,6.195c0.678,1.028,1.156,1.313,2.35,1.454V73.699z"/>
	<path fill="#231F20" d="M185.061,71.516l-4.146-6.195c1.916-0.762,3.365-2.092,3.365-4.273c0-3.445-2.717-4.271-5.765-4.271
		c-1.288,0-2.455,0.101-3.902,0.101c-1.483,0-2.987-0.101-3.765-0.101v0.736h0.443c0.75,0,1.723,0.067,1.723,1.838v12.316
		c0,0.898-0.83,1.305-1.723,1.305h-0.443V73.7c1.218,0,2.355-0.095,3.52-0.095c1.383,0,2.785,0.095,4.174,0.095v-0.729H178.1
		c-1.112,0-1.982-0.065-1.982-1.938v-5.188h1.594c1.578,2.793,3.182,5.412,5.047,7.855c0.748,0,1.522-0.094,2.279-0.094
		c0.801,0,1.574,0.094,2.373,0.094V72.97C186.217,72.829,185.739,72.544,185.061,71.516z M187.303,73.594
		c-0.752-0.012-1.502-0.096-2.276-0.096c-0.751,0-1.53,0.1-2.271,0.1c-1.786-2.4-3.381-5.014-4.961-7.803l-0.025-0.055h-1.657
		h-0.106v5.292c0,1.913,0.988,2.051,2.092,2.051h0.33v0.512c-1.342-0.006-2.707-0.096-4.065-0.096c-1.139,0-2.239,0.09-3.407,0.096
		v-0.512h0.336c0.912,0,1.818-0.44,1.818-1.416V59.352c0-1.822-1.068-1.947-1.818-1.947h-0.336v-0.516
		c0.791,0.004,2.228,0.096,3.656,0.096c1.454,0,2.624-0.096,3.902-0.096c3.044,0.01,5.658,0.797,5.664,4.155
		c-0.006,2.131-1.408,3.426-3.305,4.174l-0.123,0.05l4.222,6.312c0.661,1.003,1.192,1.345,2.331,1.481V73.594z"/>
	<path fill="#231F20" d="M177.493,57.552c-0.736,0-1.062,0.062-1.392,0.091l-0.093,0.01v7.424h0.104h1.187
		c2.445,0,3.832-0.988,3.842-3.881C181.138,58.984,179.698,57.552,177.493,57.552z M177.299,64.973h-1.182v-7.222
		c0.334-0.021,0.644-0.099,1.375-0.099c2.158,0,3.541,1.388,3.541,3.539C181.034,64.055,179.729,64.973,177.299,64.973z"/>
	<path fill="#231F20" d="M201.379,56.886v0.517h0.429c0.745,0.004,2.216,0.332,2.216,2.385l-0.033,9.162l-0.046,0.047l-0.077,0.082
		l-10.787-12.191c-0.724,0-1.428,0.096-2.156,0.096c-0.898,0-1.807-0.092-2.687-0.096v0.516h0.214
		c1.137,0.005,2.307,0.865,2.307,2.287v10.203c0,1.945-0.551,3.183-2.289,3.189h-0.23v0.512c1.049-0.008,2.129-0.096,3.192-0.096
		c1.013,0,2.021,0.088,3.024,0.096v-0.512h-0.307c-1.908,0-2.389-0.83-2.393-2.947V59.879l12.598,14.078h0.793
		c-0.102-0.721-0.126-1.537-0.126-2.338V60.586c0-2.91,1.229-3.18,2.271-3.184h0.252v-0.517c-0.955,0.005-1.912,0.097-2.875,0.097
		C203.557,56.982,202.472,56.891,201.379,56.886z"/>
	<polygon fill="#231F20" points="203.808,68.867 203.793,68.852 203.808,68.875 	"/>
	<path fill="#231F20" d="M207.75,57.607v-0.825v-0.107h-0.104c-0.998,0-1.993,0.097-2.979,0.097c-1.131,0-2.248-0.097-3.396-0.097
		h-0.106v0.836v0.099h0.643c0.704,0.014,1.999,0.248,2.001,2.178v8.916l-10.659-11.998c-0.812-0.03-1.511,0.066-2.227,0.066
		c-0.914,0-1.865-0.097-2.787-0.097h-0.113v0.836v0.099h0.43c1.039,0.004,2.092,0.785,2.096,2.08v10.203
		c-0.017,1.938-0.477,2.969-2.078,2.979h-0.333h-0.113V73.7v0.104h0.113c1.09,0,2.211-0.102,3.295-0.102
		c1.036,0,2.077,0.102,3.128,0.102h0.105v-0.834v-0.1h-0.516c-1.828-0.025-2.146-0.619-2.177-2.736v-9.711l12.303,13.711
		l0.994,0.037v-0.001h0.118l-0.012-0.123c-0.123-0.748-0.144-1.588-0.144-2.43V60.585c0.026-2.856,1.058-2.952,2.058-2.978h0.356
		H207.75z M205.129,60.586v11.033c0,0.846,0.021,1.693,0.14,2.445h-0.915L191.868,60.15v9.983c0,2.117,0.414,2.836,2.281,2.836
		h0.413v0.729c-1.045,0-2.091-0.094-3.132-0.094c-1.09,0-2.205,0.094-3.295,0.094V72.97h0.332c1.68,0,2.188-1.133,2.188-3.073
		V59.689c0-1.359-1.115-2.179-2.203-2.179h-0.316v-0.735c0.919,0,1.871,0.1,2.789,0.1c0.725,0,1.427-0.1,2.156-0.1l10.787,12.15
		l0.043-0.051v-9.088c0-1.988-1.379-2.275-2.104-2.275h-0.535v-0.736c1.145,0,2.25,0.101,3.396,0.101
		c0.994,0,1.984-0.101,2.981-0.101v0.736h-0.36C206.27,57.512,205.129,57.7,205.129,60.586z"/>
	<path fill="#231F20" d="M207.65,56.775c-0.997,0-1.987,0.101-2.981,0.101c-1.146,0-2.252-0.101-3.396-0.101v0.736h0.535
		c0.725,0,2.104,0.287,2.104,2.275v9.088l-0.043,0.051l0.076-0.07l-0.076,0.07l-10.787-12.15c-0.729,0-1.432,0.1-2.156,0.1
		c-0.918,0-1.87-0.1-2.789-0.1v0.735h0.316c1.088,0,2.203,0.819,2.203,2.179v10.207c0,1.94-0.508,3.073-2.188,3.073h-0.332v0.729
		c1.09,0,2.205-0.094,3.295-0.094c1.041,0,2.087,0.094,3.132,0.094V72.97h-0.413c-1.867,0-2.281-0.719-2.281-2.836V60.15
		l12.486,13.914h0.915c-0.118-0.752-0.14-1.6-0.14-2.445V60.586c0-2.886,1.141-3.074,2.16-3.074h0.36V56.775z M203.808,68.867v0.008
		l-0.015-0.023L203.808,68.867z M207.543,57.402h-0.252c-1.041,0.004-2.271,0.273-2.271,3.184v11.033
		c0,0.801,0.024,1.617,0.126,2.338h-0.793l-12.598-14.078v10.256c0.004,2.117,0.484,2.947,2.393,2.947h0.307v0.512
		c-1.004-0.008-2.012-0.096-3.024-0.096c-1.063,0-2.144,0.088-3.192,0.096v-0.512h0.23c1.738-0.007,2.289-1.244,2.289-3.189V59.689
		c0-1.422-1.17-2.282-2.307-2.287h-0.214v-0.516c0.88,0.004,1.788,0.096,2.687,0.096c0.729,0,1.433-0.096,2.156-0.096l10.787,12.191
		l0.077-0.082l0.046-0.047l0.033-9.162c0-2.053-1.471-2.381-2.216-2.385h-0.429v-0.517c1.093,0.005,2.178,0.097,3.289,0.097
		c0.963,0,1.92-0.092,2.875-0.097V57.402z"/>
	<path fill="#231F20" d="M222.625,72.049c-0.314-0.734-0.609-1.637-0.896-2.482l-4.463-12.68c-0.075-0.193-0.146-0.412-0.207-0.588
		c-0.022-0.021-0.017-0.021-0.036-0.021c-0.016,0-0.031,0-0.046,0c-0.052,0-0.08,0.017-0.14,0.031
		c-0.469,0.303-1.443,0.781-2.162,0.972c-0.147,0.922-0.582,2.129-0.901,3.022L209.9,71.434c-0.372,1.053-1.221,1.648-2.207,1.648
		h-0.039v0.504c0.83-0.037,1.671-0.088,2.513-0.088c0.937,0,1.896,0.051,2.821,0.088v-0.504h-0.153
		c-0.793-0.008-1.895-0.096-1.924-0.957c0-0.48,0.295-1.105,0.535-1.918l0.105,0.027l-0.105-0.031l0.801-2.592h5.647l0.972,2.881
		c0.274,0.781,0.495,1.426,0.495,1.779c-0.036,0.744-1.057,0.797-1.603,0.811h-0.166v0.504c1.197-0.037,2.378-0.088,3.533-0.088
		c1.129,0,2.182,0.051,3.236,0.088v-0.504h-0.037C223.497,73.09,222.928,72.76,222.625,72.049z M212.637,66.463l2.32-7.072h0.082
		h0.049h0.074l2.301,7.072H212.637z"/>
	<path fill="#231F20" d="M215.035,59.511l0.007-0.002L215.035,59.511l-2.249,6.847h4.53l-2.228-6.861l-0.022,0.006l0.022-0.006
		h-0.049L215.035,59.511z M217.17,66.252h-4.244l2.136-6.498L217.17,66.252z"/>
	<path fill="#231F20" d="M222.822,71.957c-0.313-0.715-0.603-1.609-0.888-2.457l-4.469-12.684c-0.074-0.195-0.147-0.408-0.223-0.607
		c-0.072-0.127-0.203-0.148-0.263-0.145c-0.099,0-0.164,0.033-0.231,0.059c-0.473,0.293-1.445,0.779-2.203,1.045
		c-0.209,0.963-0.645,2.17-0.963,3.068l-3.886,11.127c-0.35,0.982-1.099,1.498-2.002,1.498h-0.144h-0.104v0.838v0.115l0.107-0.01
		c0.867-0.046,1.74-0.103,2.611-0.103c0.965,0,1.957,0.057,2.929,0.103l0.108,0.01v-0.84v-0.113h-0.369
		c-0.807,0-1.715-0.145-1.724-0.736c0-0.391,0.286-1.031,0.534-1.861l0.755-2.445h5.351l0.92,2.742
		c0.271,0.771,0.479,1.437,0.476,1.711c0,0.468-0.83,0.59-1.388,0.59h-0.268h-0.109V73.7v0.114l0.109-0.01
		c1.242-0.045,2.448-0.102,3.635-0.102c1.16,0,2.25,0.057,3.334,0.102l0.119,0.01v-0.84v-0.113h-0.25
		C223.549,72.861,223.103,72.605,222.822,71.957z M224.467,73.7c-1.088-0.048-2.182-0.095-3.342-0.095
		c-1.186,0-2.398,0.047-3.633,0.095v-0.729h0.268c0.553,0,1.5-0.092,1.5-0.699c0-0.317-0.215-0.971-0.49-1.748l-0.941-2.812h-5.504
		l-0.771,2.522c-0.246,0.822-0.54,1.459-0.54,1.889c0,0.73,1.024,0.848,1.821,0.848h0.27V73.7c-0.977-0.048-1.968-0.095-2.938-0.095
		c-0.875,0-1.744,0.047-2.615,0.095v-0.729h0.143c0.945,0,1.749-0.559,2.104-1.574l3.885-11.121c0.312-0.901,0.755-2.11,0.896-3.012
		c0.774-0.266,1.746-0.748,2.207-1.041c0.074-0.024,0.112-0.045,0.192-0.045c0.069,0,0.118,0,0.171,0.068
		c0.073,0.195,0.143,0.414,0.223,0.609l4.457,12.678c0.289,0.846,0.58,1.748,0.895,2.475c0.293,0.678,0.803,0.963,1.604,0.963h0.141
		V73.7z"/>
	<polygon fill="#231F20" points="215.088,59.391 215.088,59.496 217.316,66.357 212.786,66.357 215.035,59.511 214.984,59.527 
		215.035,59.511 215.04,59.496 215.088,59.496 215.088,59.391 215.04,59.391 214.958,59.391 212.637,66.463 217.463,66.463 
		215.163,59.391 	"/>
	<path fill="#231F20" d="M222.723,72.008c-0.314-0.727-0.605-1.629-0.895-2.475l-4.457-12.678c-0.08-0.195-0.149-0.414-0.223-0.609
		c-0.053-0.068-0.102-0.068-0.171-0.068c-0.08,0-0.118,0.021-0.192,0.045c-0.461,0.293-1.433,0.775-2.207,1.041
		c-0.142,0.901-0.584,2.11-0.896,3.012l-3.885,11.121c-0.354,1.016-1.158,1.574-2.104,1.574h-0.143V73.7
		c0.871-0.048,1.74-0.095,2.615-0.095c0.97,0,1.961,0.047,2.938,0.095v-0.729h-0.27c-0.797,0-1.821-0.117-1.821-0.848
		c0-0.43,0.294-1.066,0.54-1.889l0.771-2.522h5.504l0.941,2.812c0.275,0.777,0.49,1.431,0.49,1.748c0,0.607-0.947,0.699-1.5,0.699
		h-0.268V73.7c1.234-0.048,2.447-0.095,3.633-0.095c1.16,0,2.254,0.047,3.342,0.095v-0.729h-0.141
		C223.526,72.971,223.016,72.686,222.723,72.008z M224.362,73.586c-1.055-0.037-2.107-0.088-3.236-0.088
		c-1.155,0-2.336,0.051-3.533,0.088v-0.504h0.166c0.546-0.014,1.566-0.066,1.603-0.811c0-0.354-0.221-0.998-0.495-1.779
		l-0.972-2.881h-5.647l-0.801,2.592l0.105,0.031l-0.105-0.027c-0.24,0.812-0.535,1.438-0.535,1.918
		c0.029,0.861,1.131,0.949,1.924,0.957h0.153v0.504c-0.926-0.037-1.885-0.088-2.821-0.088c-0.842,0-1.683,0.051-2.513,0.088v-0.504
		h0.039c0.986,0,1.835-0.596,2.207-1.648l3.875-11.131c0.319-0.894,0.754-2.101,0.901-3.022c0.719-0.19,1.693-0.669,2.162-0.972
		c0.06-0.015,0.088-0.031,0.14-0.031c0.015,0,0.03,0,0.046,0c0.02,0,0.014,0,0.036,0.021c0.062,0.176,0.132,0.395,0.207,0.588
		l4.463,12.68c0.286,0.846,0.581,1.748,0.896,2.482c0.303,0.711,0.871,1.041,1.699,1.033h0.037V73.586z"/>
	<path fill="#231F20" d="M229.61,57.886v13.056c0,1.94-0.781,2.133-2.113,2.141h-0.355v0.516c0.958-0.012,2.586-0.1,3.994-0.1
		c1.264,0,2.889,0.088,3.847,0.1l-0.003-0.516h-0.355c-1.166-0.008-2.109-0.287-2.113-2.195v-13h4.08
		c1.632,0.004,1.839,1.383,1.888,2.285l0.526-0.193c0-0.629,0-1.266,0.052-1.901c0.067-0.623,0.161-1.242,0.245-1.857l-0.361-0.065
		c-0.113,0.703-0.796,0.742-1.404,0.734h-12.51c-0.046,0-0.086,0-0.123,0c-0.572,0.004-1.188-0.027-1.408-0.709h-0.396
		c-0.008,0.678-0.051,1.323-0.148,1.973c-0.066,0.672-0.187,1.305-0.275,1.942h0.523c0.318-1.685,0.524-2.238,2.34-2.206v-0.003
		H229.61z"/>
	<path fill="#231F20" d="M238.747,55.909l-0.006,0.112c-0.041,0.634-0.533,0.645-1.203,0.656h-12.51c-0.042,0-0.08,0-0.123,0
		c-0.615-0.012-1.061-0.016-1.232-0.627l-0.021-0.078h-0.657h-0.109v0.107c0,0.693-0.045,1.367-0.145,2.049
		c-0.072,0.699-0.195,1.375-0.294,2.053l-0.017,0.123h0.854h0.086l0.016-0.082c0.396-1.791,0.355-2.094,2.156-2.127v-0.002h-0.004
		V57.99c-1.82,0-1.889,0.44-2.256,2.205h-0.73c0.102-0.678,0.224-1.354,0.295-2.062c0.099-0.678,0.146-1.358,0.146-2.057h0.579
		c0.194,0.728,0.8,0.696,1.453,0.696h12.511c0.651,0,1.256-0.02,1.305-0.746l0.584,0.099c-0.094,0.647-0.188,1.308-0.266,1.961
		c-0.059,0.654-0.059,1.312-0.059,1.963l-0.721,0.273c-0.041-0.9-0.166-2.334-1.791-2.334h-3.976v12.896
		c0,1.873,0.851,2.084,2.015,2.084h0.455v0.729c-0.941,0-2.638-0.095-3.947-0.095c-1.453,0-3.156,0.095-4.102,0.095v-0.729h0.463
		c1.338,0,2.019-0.117,2.019-2.029V57.99h-3.974v0.002v0.102h3.859v12.848c-0.033,1.879-0.566,1.897-1.904,1.931h-0.463h-0.103V73.7
		v0.104h0.103c0.957,0,2.653-0.094,4.102-0.094c1.305,0,3.002,0.094,3.947,0.094v0.002h0.108v-0.834v-0.101h-0.565
		c-1.156-0.024-1.879-0.154-1.903-1.983V58.095h3.87c1.533,0,1.632,1.322,1.693,2.23v0.145l0.858-0.313l0.075-0.029v-0.074
		c0-0.652,0-1.309,0.044-1.957c0.073-0.647,0.161-1.303,0.266-1.955l0.021-0.104l-0.69-0.105L238.747,55.909z"/>
	<polygon fill="#231F20" points="225.542,57.99 225.54,57.99 225.538,57.99 225.538,58.094 225.542,58.094 225.542,57.992 	"/>
	<polygon fill="#231F20" points="225.542,57.99 225.542,57.889 225.538,57.889 225.538,57.99 225.538,57.99 225.54,57.99 	"/>
	<path fill="#231F20" d="M225.538,57.889c-1.815-0.032-2.021,0.521-2.34,2.206h-0.523c0.089-0.638,0.209-1.271,0.275-1.942
		c0.098-0.649,0.141-1.295,0.148-1.973h0.396c0.221,0.682,0.836,0.713,1.408,0.709c0.037,0,0.077,0,0.123,0h12.51
		c0.608,0.008,1.291-0.031,1.404-0.734l0.361,0.065c-0.084,0.615-0.178,1.234-0.245,1.857c-0.052,0.636-0.052,1.272-0.052,1.901
		l-0.526,0.193c-0.049-0.902-0.256-2.281-1.888-2.285h-4.08v13c0.004,1.908,0.947,2.188,2.113,2.195h0.355l0.003,0.516
		c-0.958-0.012-2.583-0.1-3.847-0.1c-1.408,0-3.036,0.088-3.994,0.1v-0.516h0.355c1.332-0.008,2.113-0.2,2.113-2.141V57.886h-4.072
		V57.889c0.002,0,0.002,0,0.004,0v0.102h3.974v12.949c0,1.912-0.681,2.029-2.019,2.029h-0.463v0.729
		c0.945,0,2.648-0.095,4.102-0.095c1.31,0,3.006,0.095,3.947,0.095v-0.729h-0.455c-1.164,0-2.015-0.211-2.015-2.084V57.989h3.976
		c1.625,0,1.75,1.434,1.791,2.334l0.721-0.273c0-0.651,0-1.309,0.059-1.963c0.078-0.653,0.172-1.313,0.266-1.961l-0.584-0.099
		c-0.049,0.727-0.653,0.746-1.305,0.746h-12.511c-0.653,0-1.259,0.031-1.453-0.696h-0.579c0,0.698-0.048,1.379-0.146,2.057
		c-0.071,0.707-0.193,1.384-0.295,2.062h0.73c0.367-1.765,0.436-2.205,2.256-2.205l0,0V57.889z"/>
	<path fill="#231F20" d="M240.422,56.887v0.516h0.234c0.861,0,1.899,0.15,1.899,1.488V71.59c0,1.34-1.038,1.492-1.899,1.492h-0.234
		v0.512c0.939-0.012,2.308-0.096,3.459-0.096c1.176,0,2.582,0.088,3.721,0.096v-0.512h-0.227c-0.869,0-1.9-0.152-1.9-1.492V58.891
		c0-1.338,1.031-1.488,1.9-1.488h0.227v-0.516c-1.116,0.004-2.514,0.096-3.699,0.096C242.752,56.982,241.362,56.891,240.422,56.887z
		"/>
	<path fill="#231F20" d="M243.904,56.771c-1.184,0-2.639-0.096-3.585-0.096h-0.102v0.836v0.098h0.438
		c0.878,0.018,1.681,0.1,1.687,1.281V71.59c-0.006,1.186-0.809,1.264-1.687,1.281h-0.338h-0.103v0.1V73.7v0.104h0.103
		c0.946,0,2.376-0.102,3.563-0.102c1.211,0,2.662,0.102,3.834,0.102h0.097v-0.834v-0.1h-0.437c-0.885-0.018-1.684-0.096-1.691-1.281
		V58.891c0.007-1.181,0.807-1.263,1.691-1.281h0.34h0.097v-0.834v-0.1h-0.097C246.567,56.676,245.118,56.771,243.904,56.771z
		 M247.715,57.512h-0.34c-0.879,0-1.805,0.115-1.805,1.379V71.59c0,1.264,0.926,1.381,1.805,1.381h0.34V73.7
		c-1.17,0-2.619-0.095-3.834-0.095c-1.19,0-2.617,0.095-3.563,0.095v-0.729h0.338c0.878,0,1.796-0.117,1.796-1.381V58.891
		c0-1.264-0.918-1.379-1.796-1.379h-0.338v-0.736c0.946,0,2.397,0.101,3.585,0.101c1.213,0,2.667-0.101,3.812-0.101V57.512z"/>
	<path fill="#231F20" d="M240.318,56.775v0.736h0.338c0.878,0,1.796,0.115,1.796,1.379V71.59c0,1.264-0.918,1.381-1.796,1.381
		h-0.338V73.7c0.946,0,2.373-0.095,3.563-0.095c1.215,0,2.664,0.095,3.834,0.095v-0.729h-0.34c-0.879,0-1.805-0.117-1.805-1.381
		V58.891c0-1.264,0.926-1.379,1.805-1.379h0.34v-0.736c-1.146,0-2.6,0.101-3.812,0.101
		C242.715,56.876,241.264,56.775,240.318,56.775z M247.602,57.402h-0.227c-0.869,0-1.9,0.15-1.9,1.488V71.59
		c0,1.34,1.031,1.492,1.9,1.492h0.227v0.512c-1.139-0.008-2.545-0.096-3.721-0.096c-1.151,0-2.52,0.084-3.459,0.096v-0.512h0.234
		c0.861,0,1.899-0.152,1.899-1.492V58.891c0-1.338-1.038-1.488-1.899-1.488h-0.234v-0.516c0.939,0.004,2.33,0.096,3.48,0.096
		c1.186,0,2.583-0.092,3.699-0.096V57.402z"/>
	<path fill="#231F20" d="M248.538,65.359c0.008,5.154,3.877,8.593,8.969,8.597c5.109-0.004,9.052-3.656,9.062-9.179
		c-0.004-5.1-4.062-8.252-9.187-8.256C252.393,56.521,248.538,60.374,248.538,65.359z M257.334,57.375
		c4.121,0.008,6.037,4.379,6.041,7.945c-0.004,3.531-0.836,7.777-5.631,7.777c-4.021-0.004-6.013-4.223-6.021-8.588
		C251.732,61.25,253.01,57.375,257.334,57.375z"/>
	<path fill="#231F20" d="M257.381,56.309v0.106v0.001c5.166,0,9.287,3.201,9.287,8.367c0,5.576-4,9.281-9.164,9.281
		c-5.145,0-9.062-3.486-9.062-8.703c0-5.037,3.898-8.945,8.939-8.945v-0.001V56.309c-5.094,0.008-9.039,3.955-9.051,9.053
		c0.012,5.266,3.99,8.799,9.174,8.811c5.213-0.012,9.261-3.76,9.265-9.393C266.76,59.552,262.586,56.316,257.381,56.309z"/>
	<path fill="#231F20" d="M263.269,65.32c0-3.547-1.91-7.834-5.935-7.834c-4.242,0-5.502,3.781-5.502,7.022
		c0,4.343,1.986,8.491,5.912,8.491v-0.104c-3.834-0.014-5.804-4.066-5.808-8.387c0.006-3.229,1.239-6.916,5.397-6.92
		c3.937,0.003,5.832,4.212,5.832,7.73c-0.012,3.531-0.809,7.572-5.422,7.576V73C262.454,73,263.269,68.852,263.269,65.32z"/>
	<path fill="#231F20" d="M257.745,73.098V73c-3.926,0-5.912-4.148-5.912-8.491c0-3.241,1.26-7.022,5.502-7.022
		c4.024,0,5.935,4.287,5.935,7.834c0,3.531-0.815,7.68-5.524,7.68V73.098c4.795,0,5.627-4.246,5.631-7.777
		c-0.004-3.566-1.92-7.938-6.041-7.945c-4.324,0-5.603,3.875-5.611,7.135C251.732,68.875,253.723,73.094,257.745,73.098z"/>
	<path fill="#231F20" d="M248.442,65.361c0,5.217,3.918,8.703,9.062,8.703c5.164,0,9.164-3.705,9.164-9.281
		c0-5.166-4.121-8.367-9.287-8.367v0.105c5.125,0.004,9.183,3.156,9.187,8.256c-0.01,5.522-3.952,9.175-9.062,9.179
		c-5.092-0.004-8.961-3.442-8.969-8.597c0-4.985,3.855-8.838,8.844-8.838v-0.105C252.34,56.416,248.442,60.324,248.442,65.361z"/>
	<path fill="#231F20" d="M280.516,56.886v0.517h0.423c0.755,0.004,2.218,0.336,2.218,2.385l-0.027,9.162l-0.043,0.047l-0.078,0.082
		l-10.793-12.191c-0.717,0-1.424,0.096-2.155,0.096c-0.896,0-1.808-0.092-2.685-0.096v0.516h0.209
		c1.14,0.005,2.312,0.865,2.312,2.287v10.207c0,1.941-0.539,3.179-2.285,3.187h-0.235v0.512c1.051-0.008,2.129-0.096,3.194-0.096
		c1.013,0,2.021,0.088,3.021,0.096v-0.512h-0.312c-1.902,0-2.378-0.83-2.378-2.947V59.879l12.587,14.078h0.803
		c-0.108-0.727-0.129-1.537-0.129-2.338V60.586c0-2.914,1.225-3.18,2.264-3.184h0.264v-0.517c-0.962,0.005-1.92,0.097-2.891,0.097
		C282.702,56.982,281.616,56.891,280.516,56.886z"/>
	<polygon fill="#231F20" points="282.945,68.867 282.924,68.852 282.945,68.875 	"/>
	<path fill="#231F20" d="M286.89,57.607v-0.834v-0.1h-0.104c-1.008,0-1.99,0.096-2.99,0.096c-1.121,0-2.244-0.096-3.385-0.096
		h-0.106v0.836v0.098h0.633c0.715,0.019,2.002,0.248,2.007,2.179v8.916l-10.646-11.99c-0.825-0.037-1.523,0.06-2.239,0.06
		c-0.914,0-1.86-0.097-2.791-0.097h-0.101v0.836v0.099h0.416c1.043,0.004,2.1,0.785,2.1,2.08v10.207
		c-0.012,1.935-0.473,2.961-2.072,2.965h-0.343h-0.101V73.7v0.104h0.101c1.101,0,2.216-0.094,3.302-0.094
		c1.036,0,2.079,0.094,3.127,0.094h0.107v-0.83v-0.113h-0.526c-1.819-0.018-2.142-0.609-2.172-2.727v-9.711l12.302,13.711
		l1.004,0.037v-0.001h0.115l-0.021-0.123c-0.112-0.741-0.133-1.588-0.133-2.43V60.585c0.021-2.856,1.055-2.948,2.051-2.978h0.363
		H286.89z M284.263,60.586v11.033c0,0.846,0.028,1.693,0.146,2.445h-0.923L271.004,60.15v9.983c0,2.117,0.41,2.836,2.281,2.836
		h0.409v0.729c-1.044,0-2.083-0.094-3.127-0.094c-1.091,0-2.208,0.094-3.302,0.094V72.97h0.343c1.679,0,2.177-1.133,2.177-3.073
		V59.689c0-1.359-1.107-2.179-2.203-2.179h-0.315v-0.735c0.926,0,1.868,0.1,2.791,0.1c0.726,0,1.427-0.1,2.155-0.1l10.793,12.15
		l0.048-0.051v-9.088c0-1.988-1.382-2.275-2.116-2.275h-0.521v-0.736c1.133,0,2.25,0.101,3.389,0.101
		c0.999,0,1.99-0.101,2.982-0.101v0.736h-0.365C285.402,57.512,284.263,57.7,284.263,60.586z"/>
	<path fill="#231F20" d="M286.788,56.775c-0.992,0-1.983,0.101-2.982,0.101c-1.139,0-2.256-0.101-3.389-0.101v0.736h0.521
		c0.734,0,2.116,0.287,2.116,2.275v9.088l-0.048,0.051l0.078-0.07l-0.078,0.07l-10.793-12.15c-0.729,0-1.43,0.1-2.155,0.1
		c-0.923,0-1.865-0.1-2.791-0.1v0.735h0.315c1.096,0,2.203,0.819,2.203,2.179v10.207c0,1.94-0.498,3.073-2.177,3.073h-0.343v0.729
		c1.094,0,2.211-0.094,3.302-0.094c1.044,0,2.083,0.094,3.127,0.094V72.97h-0.409c-1.871,0-2.281-0.719-2.281-2.836V60.15
		l12.481,13.914h0.923c-0.117-0.752-0.146-1.6-0.146-2.445V60.586c0-2.886,1.139-3.074,2.159-3.074h0.365V56.775z M282.945,68.867
		v0.008l-0.021-0.023L282.945,68.867z M286.688,57.402h-0.264c-1.039,0.004-2.264,0.27-2.264,3.184v11.033
		c0,0.801,0.021,1.611,0.129,2.338h-0.803L270.9,59.879v10.257c0,2.117,0.476,2.947,2.378,2.947h0.312v0.512
		c-1-0.008-2.008-0.096-3.021-0.096c-1.065,0-2.144,0.088-3.194,0.096v-0.512h0.235c1.746-0.008,2.285-1.245,2.285-3.187V59.689
		c0-1.422-1.172-2.282-2.312-2.287h-0.209v-0.516c0.877,0.004,1.789,0.096,2.685,0.096c0.731,0,1.438-0.096,2.155-0.096
		l10.793,12.191l0.078-0.082l0.043-0.047l0.027-9.162c0-2.049-1.463-2.381-2.218-2.385h-0.423v-0.517
		c1.1,0.005,2.186,0.097,3.281,0.097c0.971,0,1.929-0.092,2.891-0.097V57.402z"/>
	<path fill="#231F20" d="M291.385,67.611h5.656l0.965,2.881c0.273,0.781,0.488,1.426,0.488,1.779
		c-0.035,0.744-1.052,0.797-1.606,0.811h-0.157v0.506c1.193-0.039,2.379-0.09,3.533-0.09c1.123,0,2.182,0.051,3.234,0.088v-0.504
		h-0.039c-0.82,0-1.395-0.322-1.697-1.033c-0.32-0.734-0.609-1.637-0.898-2.482l-4.455-12.68c-0.074-0.193-0.152-0.412-0.211-0.578
		c-0.02-0.031-0.02-0.031-0.039-0.031c-0.008,0-0.023,0-0.039,0c-0.054,0-0.078,0.017-0.144,0.031
		c-0.472,0.299-1.437,0.785-2.163,0.972c-0.145,0.922-0.587,2.129-0.895,3.022l-3.885,11.131c-0.369,1.053-1.212,1.648-2.209,1.648
		h-0.037v0.504c0.838-0.037,1.672-0.088,2.518-0.088c0.938,0,1.893,0.051,2.833,0.088v-0.504h-0.171
		c-0.784-0.008-1.893-0.096-1.922-0.959c0.006-0.479,0.308-1.1,0.545-1.916l0.093,0.027l-0.093-0.031L291.385,67.611z
		 M294.107,59.391h0.069h0.048h0.077l2.293,7.064h-4.82L294.107,59.391z"/>
	<path fill="#231F20" d="M301.961,71.965c-0.316-0.721-0.607-1.615-0.896-2.463l-4.461-12.684c-0.078-0.196-0.15-0.413-0.219-0.604
		c-0.079-0.131-0.206-0.153-0.266-0.146c-0.099,0-0.173,0.031-0.234,0.056c-0.469,0.293-1.442,0.778-2.205,1.045
		c-0.213,0.963-0.649,2.17-0.959,3.067l-3.879,11.128c-0.354,0.979-1.113,1.497-2.018,1.508h-0.134h-0.106V73.7v0.114l0.106-0.01
		c0.872-0.041,1.74-0.094,2.614-0.094c0.963,0,1.958,0.053,2.925,0.094l0.108,0.01v-0.844v-0.1h-0.371
		c-0.801,0-1.707-0.154-1.707-0.748c-0.01-0.389,0.285-1.025,0.525-1.859l0.746-2.445h5.352l0.92,2.742
		c0.275,0.773,0.492,1.437,0.488,1.711c-0.004,0.468-0.84,0.601-1.403,0.601h-0.265h-0.104V73.7v0.114l0.107-0.01
		c1.236-0.041,2.451-0.094,3.637-0.094c1.15,0,2.246,0.053,3.338,0.094l0.107,0.012v-0.844v-0.1h-0.248
		C302.682,72.863,302.249,72.607,301.961,71.965z M303.61,72.971V73.7c-1.088-0.048-2.184-0.095-3.344-0.095
		c-1.189,0-2.404,0.047-3.641,0.095v-0.729h0.269c0.558,0,1.507-0.092,1.507-0.699c0-0.317-0.223-0.971-0.49-1.748l-0.94-2.812
		h-5.499l-0.788,2.522c-0.235,0.822-0.526,1.459-0.526,1.889c0,0.73,1.022,0.848,1.811,0.848h0.271V73.7
		c-0.971-0.048-1.963-0.095-2.934-0.095c-0.883,0-1.749,0.047-2.614,0.095v-0.729h0.134c0.95,0,1.758-0.559,2.113-1.574
		l3.885-11.121c0.314-0.901,0.748-2.11,0.893-3.012c0.775-0.266,1.746-0.748,2.207-1.041c0.074-0.024,0.125-0.045,0.197-0.045
		c0.065,0,0.111,0,0.166,0.068c0.074,0.195,0.143,0.414,0.223,0.609l4.459,12.678c0.285,0.846,0.582,1.748,0.896,2.475
		c0.289,0.678,0.805,0.963,1.602,0.963H303.61z"/>
	<path fill="#231F20" d="M294.171,59.511l0.005-0.002L294.171,59.511l-2.251,6.847h4.539l-2.235-6.861l-0.022,0.006l0.022-0.006
		h-0.048L294.171,59.511z M296.31,66.248h-4.242l2.129-6.49L296.31,66.248z"/>
	<path fill="#231F20" d="M301.864,72.008c-0.314-0.727-0.611-1.629-0.896-2.475l-4.459-12.678c-0.08-0.195-0.148-0.414-0.223-0.609
		c-0.055-0.068-0.101-0.068-0.166-0.068c-0.072,0-0.123,0.021-0.197,0.045c-0.461,0.293-1.432,0.775-2.207,1.041
		c-0.145,0.901-0.578,2.11-0.893,3.012l-3.885,11.121c-0.355,1.016-1.163,1.574-2.113,1.574h-0.134V73.7
		c0.865-0.048,1.731-0.095,2.614-0.095c0.971,0,1.963,0.047,2.934,0.095v-0.729h-0.271c-0.788,0-1.811-0.117-1.811-0.848
		c0-0.43,0.291-1.066,0.526-1.889l-0.093-0.027c-0.237,0.816-0.539,1.438-0.545,1.916c0.029,0.863,1.138,0.951,1.922,0.959h0.171
		v0.504c-0.94-0.037-1.896-0.088-2.833-0.088c-0.846,0-1.68,0.051-2.518,0.088v-0.504h0.037c0.997,0,1.84-0.596,2.209-1.648
		l3.885-11.131c0.308-0.894,0.75-2.101,0.895-3.022c0.727-0.187,1.691-0.673,2.163-0.972c0.065-0.015,0.09-0.031,0.144-0.031
		c0.016,0,0.031,0,0.039,0c0.02,0,0.02,0,0.039,0.031c0.059,0.166,0.137,0.385,0.211,0.578l4.455,12.68
		c0.289,0.846,0.578,1.748,0.898,2.482c0.303,0.711,0.877,1.033,1.697,1.033h0.039v0.504c-1.053-0.037-2.111-0.088-3.234-0.088
		c-1.154,0-2.34,0.051-3.533,0.09v-0.506h0.157c0.555-0.014,1.571-0.066,1.606-0.811c0-0.354-0.215-0.998-0.488-1.779l-0.965-2.881
		h-5.656l-0.795,2.592l0.093,0.031l0.788-2.522h5.499l0.94,2.812c0.268,0.777,0.49,1.431,0.49,1.748
		c0,0.607-0.949,0.699-1.507,0.699h-0.269V73.7c1.236-0.048,2.451-0.095,3.641-0.095c1.16,0,2.256,0.047,3.344,0.095v-0.729h-0.145
		C302.668,72.971,302.153,72.686,301.864,72.008z"/>
	<polygon fill="#231F20" points="294.301,59.391 294.224,59.391 294.224,59.496 296.459,66.357 291.92,66.357 294.171,59.511 
		294.131,59.527 294.171,59.511 294.176,59.496 294.224,59.496 294.224,59.391 294.176,59.391 294.107,59.391 291.774,66.455 
		296.594,66.455 	"/>
	<path fill="#231F20" d="M314.374,72.739c-0.637,0.069-1.264,0.1-1.857,0.1c-0.467,0-0.93-0.021-1.363-0.051
		c-0.783-0.09-1.551-0.427-1.543-1.461V58.822c0-1.354,0.848-1.42,1.752-1.42h0.504v-0.517c-1.193,0.005-2.379,0.097-3.582,0.097
		c-1.262,0-2.486-0.092-3.727-0.097v0.517h0.23c0.869,0,1.926,0.149,1.926,1.483v12.459c0,1.57-1.053,1.736-1.926,1.736h-0.23v0.512
		c2.092-0.006,4.191-0.096,6.303-0.096c2.102,0.001,4.203,0.091,6.309,0.097c0.279-1.313,0.598-2.602,0.854-3.912h-0.5
		c-0.145,0.533-0.361,1.183-0.746,1.705C316.327,72.02,315.426,72.609,314.374,72.739z"/>
	<path fill="#231F20" d="M317.364,69.471l-0.023,0.082c-0.143,0.529-0.355,1.196-0.73,1.717c-0.42,0.578-1.268,1.144-2.25,1.263
		c-0.635,0.067-1.25,0.096-1.844,0.096c-0.463,0-0.918-0.019-1.34-0.045c-0.764-0.11-1.352-0.353-1.363-1.256V58.823
		c0.02-1.229,0.609-1.188,1.549-1.214h0.609h0.096v-0.834v-0.1h-0.096c-1.244,0-2.455,0.096-3.688,0.096
		c-1.283,0-2.541-0.096-3.836-0.096h-0.1v0.836v0.098h0.439c0.887,0.018,1.713,0.1,1.721,1.277v12.461
		c-0.008,1.44-0.84,1.504-1.721,1.524h-0.342h-0.1V73.7v0.104h0.1c2.141,0,4.273-0.094,6.412-0.094c2.125,0,4.256,0.094,6.395,0.094
		h0.078l0.025-0.078c0.295-1.385,0.627-2.737,0.898-4.123l0.025-0.133h-0.832H317.364z M317.252,73.698
		c-2.135,0-4.27-0.095-6.395-0.095c-2.139,0-4.271,0.095-6.406,0.095v-0.729h0.336c0.881,0,1.822-0.117,1.822-1.625V58.891
		c0-1.264-0.941-1.379-1.822-1.379h-0.336v-0.736c1.285,0,2.549,0.101,3.83,0.101c1.236,0,2.449-0.101,3.688-0.101v0.736h-0.609
		c-0.918,0-1.641,0.025-1.641,1.312v12.503c0,0.971,0.674,1.26,1.449,1.359c0.994,0.073,2.084,0.073,3.203-0.05
		c1.014-0.118,1.893-0.704,2.322-1.311c0.387-0.537,0.604-1.211,0.754-1.748h0.703C317.881,70.96,317.545,72.32,317.252,73.698z"/>
	<path fill="#231F20" d="M316.694,71.325c-0.43,0.606-1.309,1.192-2.322,1.311c-1.119,0.123-2.209,0.123-3.203,0.05
		c-0.775-0.1-1.449-0.389-1.449-1.359V58.823c0-1.286,0.723-1.312,1.641-1.312h0.609v-0.736c-1.238,0-2.451,0.101-3.688,0.101
		c-1.281,0-2.545-0.101-3.83-0.101v0.736h0.336c0.881,0,1.822,0.115,1.822,1.379v12.453c0,1.508-0.941,1.625-1.822,1.625h-0.336
		v0.729c2.135,0,4.268-0.095,6.406-0.095c2.125,0,4.26,0.095,6.395,0.095c0.293-1.378,0.629-2.738,0.898-4.121h-0.703
		C317.297,70.114,317.081,70.788,316.694,71.325z M318.022,69.682c-0.256,1.311-0.574,2.599-0.854,3.912
		c-2.105-0.006-4.207-0.096-6.309-0.097c-2.111,0-4.211,0.09-6.303,0.096v-0.512h0.23c0.873,0,1.926-0.166,1.926-1.736V58.886
		c0-1.334-1.057-1.483-1.926-1.483h-0.23v-0.517c1.24,0.005,2.465,0.097,3.727,0.097c1.203,0,2.389-0.092,3.582-0.097v0.517h-0.504
		c-0.904,0-1.752,0.065-1.752,1.42v12.505c-0.008,1.034,0.76,1.371,1.543,1.461c0.434,0.03,0.896,0.051,1.363,0.051
		c0.594,0,1.221-0.03,1.857-0.1c1.053-0.13,1.953-0.72,2.402-1.353c0.385-0.522,0.602-1.172,0.746-1.705H318.022z"/>
	<path fill="#231F20" d="M317.852,56.094c-1.453,0-2.553,1.123-2.553,2.557c0,1.437,1.1,2.545,2.553,2.545
		c1.463,0,2.555-1.108,2.555-2.545C320.407,57.217,319.315,56.094,317.852,56.094z M317.852,60.721c-1.148,0-2.021-0.971-2.021-2.07
		c0-1.098,0.873-2.082,2.021-2.082c1.16,0,2.021,0.984,2.021,2.082C319.874,59.75,318.997,60.721,317.852,60.721z"/>
	<path fill="#231F20" d="M318.575,59.312l-0.416-0.586c0.355-0.108,0.604-0.386,0.604-0.771c0-0.459-0.416-0.679-0.857-0.679h-1.311
		v0.132c0.334-0.015,0.363,0.075,0.363,0.344v1.89c0,0.199-0.061,0.188-0.373,0.229v0.126h1.232V59.87
		c-0.311-0.041-0.369-0.029-0.369-0.203v-0.842h0.281c0.471,0.67,0.678,1.172,0.914,1.172h0.498v-0.082
		C318.995,59.829,318.774,59.575,318.575,59.312z M317.747,58.65h-0.297v-1.197h0.281c0.258,0,0.5,0.141,0.5,0.549
		C318.231,58.404,318.079,58.65,317.747,58.65z"/>
	<path fill="#0069AA" d="M53.997,22.031v45.878c9.222-3.54,15.769-12.464,15.787-22.937C69.766,34.498,63.22,25.568,53.997,22.031z"
		/>
	<path fill="#0069AA" d="M56.09,2.688H45.108C21.67,2.684,2.383,20.154,2.383,45.413c0,23.112,19.287,42.099,42.725,41.987H56.09
		c23.157,0,44.295-18.883,44.295-41.987C100.385,20.147,79.247,2.684,56.09,2.688z M45.202,83.74
		C23.786,83.736,6.436,66.385,6.43,44.972C6.436,23.556,23.786,6.199,45.202,6.191c21.418,0.008,38.773,17.365,38.779,38.78
		C83.975,66.385,66.62,83.736,45.202,83.74z"/>
	<path fill="#0069AA" d="M20.624,44.972c0.025,10.465,6.56,19.383,15.775,22.928V22.034C27.184,25.583,20.649,34.503,20.624,44.972z
		"/>
</g>
</svg>
