<svg height="512" viewBox="0 0 74 74" width="512" xmlns="http://www.w3.org/2000/svg"><g id="color_line" data-name="color line"><rect fill="#e1e6e9" height="67.974" rx="4.468" width="41.209" x="14.723" y="2.438"/><path d="m14.723 11.482h41.209v46.443h-41.209z" fill="#89c5cd"/><path d="m51.531 11.482h4.406v-4.574a4.471 4.471 0 0 0 -4.47-4.47h-.021a3.707 3.707 0 0 1 .085.847z" fill="#d5d6db"/><path d="m51.531 11.482h4.406v46.121h-4.406z" fill="#6eaaad"/><path d="m51.531 58.066v4.253a4.484 4.484 0 0 1 -4.47 4.47h-32.242a4.417 4.417 0 0 0 4.364 3.623h32.284a4.471 4.471 0 0 0 4.47-4.47v-7.876z" fill="#d5d6db"/><g fill="#323c6b"><path d="m10.4 39.912a.5.5 0 0 1 -.354-.146 3.16 3.16 0 0 1 0-4.471.5.5 0 0 1 .707.707 2.161 2.161 0 0 0 0 3.057.5.5 0 0 1 -.354.854z"/><path d="m4.556 45.444a.5.5 0 0 1 -.361-.154 11.22 11.22 0 0 1 .325-15.845.5.5 0 0 1 .692.722 10.218 10.218 0 0 0 -.3 14.431.5.5 0 0 1 -.361.846z"/><path d="m7.458 42.658a.5.5 0 0 1 -.358-.158 7.193 7.193 0 0 1 .208-10.158.5.5 0 0 1 .692.726 6.191 6.191 0 0 0 -.179 8.744.5.5 0 0 1 -.361.846z"/><path d="m60.257 39.912a.5.5 0 0 1 -.354-.854 2.161 2.161 0 0 0 -.003-3.058.5.5 0 0 1 .707-.707 3.16 3.16 0 0 1 0 4.471.5.5 0 0 1 -.35.148z"/><path d="m66.1 45.444a.5.5 0 0 1 -.361-.846 10.218 10.218 0 0 0 -.3-14.431.5.5 0 0 1 .692-.722 11.22 11.22 0 0 1 .329 15.845.5.5 0 0 1 -.36.154z"/><path d="m63.2 42.658a.5.5 0 0 1 -.361-.846 6.191 6.191 0 0 0 -.179-8.744.5.5 0 0 1 .692-.722 7.193 7.193 0 0 1 .207 10.154.5.5 0 0 1 -.359.158z"/><path d="m59.125 10.767a.5.5 0 0 1 -.5-.5v-.839a.5.5 0 0 1 1 0v.838a.5.5 0 0 1 -.5.501z"/><path d="m59.125 26.3a.5.5 0 0 1 -.5-.5v-12.265a.5.5 0 0 1 1 0v12.265a.5.5 0 0 1 -.5.5z"/><path d="m51.464 70.912h-32.273a4.974 4.974 0 0 1 -4.968-4.968v-59.037a4.974 4.974 0 0 1 4.968-4.969h32.273a4.974 4.974 0 0 1 4.968 4.969v59.037a4.974 4.974 0 0 1 -4.968 4.968zm-32.273-67.974a3.973 3.973 0 0 0 -3.968 3.969v59.037a3.973 3.973 0 0 0 3.968 3.968h32.273a3.973 3.973 0 0 0 3.968-3.968v-59.037a3.973 3.973 0 0 0 -3.968-3.969z"/><path d="m55.932 58.425h-41.209a.5.5 0 0 1 -.5-.5v-46.444a.5.5 0 0 1 .5-.5h41.209a.5.5 0 0 1 .5.5v46.444a.5.5 0 0 1 -.5.5zm-40.709-1h40.209v-45.444h-40.209z"/><path d="m32.724 7.46h-.824a.5.5 0 0 1 0-1h.826a.5.5 0 0 1 0 1z"/><path d="m35.741 7.46h-.826a.5.5 0 0 1 0-1h.826a.5.5 0 0 1 0 1z"/><path d="m38.757 7.46h-.826a.5.5 0 0 1 0-1h.826a.5.5 0 0 1 0 1z"/></g><circle cx="35.328" cy="63.813" fill="#9297ab" r="2.563"/><path d="m35.328 66.875a3.063 3.063 0 1 1 3.063-3.062 3.066 3.066 0 0 1 -3.063 3.062zm0-5.125a2.063 2.063 0 1 0 2.063 2.063 2.065 2.065 0 0 0 -2.063-2.063z" fill="#323c6b"/><path d="m35.35 23.529a7.456 7.456 0 0 0 -7.45 7.45v6.871h14.9v-6.871a7.456 7.456 0 0 0 -7.45-7.45zm4.93 12.119h-9.87v-4.7a4.935 4.935 0 1 1 9.87 0z" fill="#eeefee"/><path d="m42.8 38.35h-14.9a.5.5 0 0 1 -.5-.5v-6.871a7.95 7.95 0 1 1 15.9 0v6.871a.5.5 0 0 1 -.5.5zm-14.4-1h13.9v-6.371a6.95 6.95 0 1 0 -13.9 0zm11.88-1.2h-9.87a.5.5 0 0 1 -.5-.5v-4.7a5.435 5.435 0 1 1 10.87 0v4.7a.5.5 0 0 1 -.5.498zm-9.37-1h8.87v-4.2a4.435 4.435 0 1 0 -8.87 0z" fill="#323c6b"/><path d="m43.019 35.648h-15.355a1.961 1.961 0 0 0 -1.964 1.952l-.028 10.44a1.961 1.961 0 0 0 1.961 1.966h15.358a1.961 1.961 0 0 0 1.961-1.956l.028-10.44a1.961 1.961 0 0 0 -1.961-1.962z" fill="#fcd462"/><path d="m42.992 50.51h-15.356a2.461 2.461 0 0 1 -2.461-2.468l.025-10.442a2.465 2.465 0 0 1 2.461-2.455h15.359a2.461 2.461 0 0 1 2.461 2.468l-.028 10.44a2.465 2.465 0 0 1 -2.461 2.457zm-15.328-14.362a1.464 1.464 0 0 0 -1.464 1.457l-.028 10.44a1.46 1.46 0 0 0 1.461 1.465h15.359a1.464 1.464 0 0 0 1.461-1.457l.028-10.44a1.461 1.461 0 0 0 -1.461-1.465z" fill="#323c6b"/><path d="m35.328 45.594a.5.5 0 0 1 -.5-.5v-1.742a.5.5 0 0 1 1 0v1.742a.5.5 0 0 1 -.5.5z" fill="#323c6b"/><circle cx="35.328" cy="42.035" fill="#fcd462" r="1.316"/><path d="m35.328 43.852a1.816 1.816 0 1 1 1.816-1.816 1.819 1.819 0 0 1 -1.816 1.816zm0-2.633a.816.816 0 1 0 .816.816.817.817 0 0 0 -.816-.816z" fill="#323c6b"/></g></svg>