<svg id="Capa_1" enable-background="new 0 0 512 512" height="512" viewBox="0 0 512 512" width="512" xmlns="http://www.w3.org/2000/svg"><g><path d="m436.779 74.98c-48.353-48.351-112.64-74.98-181.02-74.98-65.028 0-127.018 24.411-174.549 68.735-47.29 44.099-75.962 103.778-80.734 168.042-.307 4.131 2.793 7.729 6.924 8.035 4.15.318 7.729-2.793 8.035-6.924 5.053-68.035 38.641-128.04 88.435-168.603l5.912 17.558c2.017 5.99 7.128 10.439 13.34 11.612l25.644 4.838c-4.037 6.979-6.36 15.068-6.36 23.695 0 13.455 11.093 35.594 32.97 65.803 3.361 4.642 8.788 7.413 14.518 7.413s11.156-2.771 14.518-7.413c10.729-14.815 18.858-27.684 24.363-38.545l34.616 33.214c.489.469.77 1.126.77 1.803v46.822c0 .519-.158 1.018-.458 1.442l-15.949 22.59c-4.104 5.81-4.295 13.447-.49 19.457l3.813 6.021c2.61 4.122 6.86 6.985 11.662 7.856l27.855 5.052c1.022.186 2.053.276 3.08.276 4.294 0 8.526-1.586 11.75-4.488l33.042-29.738c3.683-3.313 5.794-8.055 5.794-13.008v-54.806c0-.556.188-1.103.532-1.542l24.869-31.741c.477-.609 1.194-.958 1.968-.958h12.384c4.143 0 7.5-3.358 7.5-7.5s-3.357-7.5-7.5-7.5h-12.384c-5.415 0-10.437 2.445-13.775 6.707l-24.867 31.739c-2.403 3.065-3.727 6.899-3.727 10.794v54.806c0 .708-.302 1.385-.828 1.858l-33.043 29.739c-.57.514-1.358.739-2.118.602l-27.855-5.052c-.687-.125-1.294-.534-1.666-1.122l-3.813-6.021c-.544-.859-.518-1.95.069-2.78l15.949-22.59c2.097-2.969 3.205-6.459 3.205-10.094v-46.822c0-4.743-1.963-9.345-5.385-12.627l-38.724-37.154c1.546-4.762 2.33-8.935 2.33-12.493 0-26.185-21.303-47.488-47.487-47.488-11.332 0-21.745 3.995-29.917 10.643l-34.073-6.428c-.888-.168-1.618-.804-1.906-1.659l-7.531-22.365c39.538-28.148 87.729-44.691 139.292-44.691 82.702 0 155.801 41.879 199.223 105.538l-21.964 26.073c-.476.564-1.172.888-1.91.888h-13.095c-4.143 0-7.5 3.358-7.5 7.5s3.357 7.5 7.5 7.5h13.095c5.174 0 10.053-2.27 13.384-6.226l18.919-22.458c21.175 35.849 33.349 77.619 33.349 122.184 0 63.358-24.588 121.072-64.708 164.134l2.855-29.034c.362-3.678-.428-7.313-2.287-10.512l-23.983-41.241c1.29-4.255 1.944-8.017 1.944-11.268 0-26.185-21.303-47.487-47.487-47.487-25.339 0-46.105 19.95-47.419 44.968l-33.654 9.958c-.23.068-.47.103-.709.103h-30.257c-8.698-9.659-21.292-15.744-35.283-15.744-1.22 0-2.425.061-3.622.152l-22.983-19.512c-.949-.806-1.163-2.161-.51-3.22l5.766-9.334c3.892-6.303 3.383-14.413-1.269-20.181l-17.555-21.768c-3.339-4.14-8.304-6.515-13.622-6.515h-42.56c-6.106 0-11.854 3.252-15.002 8.489l-16.533 27.526c-3.719 6.189-3.217 14.159 1.247 19.833l14.252 18.114c.4.508.586 1.143.522 1.788l-5.305 54.306c-.349 3.568.392 7.107 2.139 10.235l17.752 31.784c.277.498.378 1.08.282 1.642l-6.273 36.715c-23.33-17.273-43.701-38.909-59.919-64.268-2.232-3.49-6.868-4.508-10.359-2.277-3.489 2.231-4.509 6.87-2.277 10.359 47.356 74.048 128.036 118.256 215.816 118.256 68.38 0 132.667-26.629 181.02-74.98 48.352-48.352 74.98-112.64 74.98-181.02s-26.629-132.667-74.98-181.02zm-246.885 19.521c17.913 0 32.487 14.574 32.487 32.488 0 9.653-11.259 30.963-30.118 57.005-.763 1.053-1.812 1.21-2.369 1.21s-1.606-.157-2.369-1.21c-18.859-26.042-30.118-47.352-30.118-57.005-.001-17.914 14.574-32.488 32.487-32.488zm173.199 201.091c17.913 0 32.487 14.574 32.487 32.487 0 9.653-11.259 30.963-30.118 57.006-.763 1.053-1.812 1.21-2.368 1.21-.558 0-1.607-.157-2.37-1.21-18.859-26.042-30.118-47.353-30.118-57.006 0-17.913 14.574-32.487 32.487-32.487zm-114.835 71.772c0 9.653-11.259 30.964-30.118 57.006-.763 1.053-1.812 1.211-2.369 1.211s-1.606-.158-2.369-1.211c-18.859-26.042-30.118-47.353-30.118-57.006 0-17.914 14.574-32.487 32.487-32.487s32.487 14.573 32.487 32.487zm-122.144 91.938 7.443-43.56c.671-3.925-.028-8.002-1.971-11.481l-17.754-31.787c-.249-.446-.354-.951-.304-1.461l5.305-54.305c.441-4.514-.86-8.961-3.664-12.523l-14.251-18.112c-.638-.811-.71-1.949-.178-2.833l16.533-27.525c.449-.749 1.271-1.214 2.144-1.214h42.56c.76 0 1.469.339 1.946.931l17.554 21.767c.665.825.738 1.983.183 2.884l-5.766 9.334c-4.578 7.416-3.08 16.893 3.563 22.535l15.193 12.899c-15.612 7.788-26.366 23.915-26.366 42.515 0 13.455 11.093 35.595 32.97 65.804 3.361 4.642 8.788 7.413 14.518 7.413s11.156-2.771 14.518-7.413c21.877-30.209 32.97-52.349 32.97-65.804 0-5.892-1.087-11.533-3.057-16.744h21.11c1.681 0 3.352-.242 4.965-.719l31.649-9.364c4.293 13.247 14.546 31.107 30.651 53.347 3.362 4.641 8.79 7.412 14.519 7.412s11.155-2.771 14.517-7.413c10.312-14.239 18.225-26.684 23.712-37.273l18.329 31.517c.266.458.379.977.327 1.503l-4.598 46.762c-42.546 37.685-98.455 60.606-159.625 60.606-46.867 0-91.581-13.392-129.645-37.698z"/><path d="m15.228 270.877c-.252-4.134-3.813-7.281-7.942-7.03-4.135.252-7.282 3.808-7.03 7.943 1.936 31.743 9.628 62.413 22.865 91.159 1.265 2.747 3.979 4.365 6.817 4.365 1.05 0 2.116-.222 3.132-.689 3.763-1.732 5.408-6.187 3.676-9.949-12.457-27.052-19.697-55.919-21.518-85.799z"/><path d="m179.114 133.785h3.279v3.279c0 4.142 3.357 7.5 7.5 7.5s7.5-3.358 7.5-7.5v-3.279h3.279c4.143 0 7.5-3.358 7.5-7.5s-3.357-7.5-7.5-7.5h-3.279v-3.279c0-4.142-3.357-7.5-7.5-7.5s-7.5 3.358-7.5 7.5v3.279h-3.279c-4.143 0-7.5 3.358-7.5 7.5s3.358 7.5 7.5 7.5z"/><path d="m370.593 338.155v-3.279h3.279c4.143 0 7.5-3.358 7.5-7.5s-3.357-7.5-7.5-7.5h-3.279v-3.279c0-4.142-3.357-7.5-7.5-7.5s-7.5 3.358-7.5 7.5v3.279h-3.279c-4.143 0-7.5 3.358-7.5 7.5s3.357 7.5 7.5 7.5h3.279v3.279c0 4.142 3.357 7.5 7.5 7.5s7.5-3.358 7.5-7.5z"/><path d="m204.991 374.16h3.279v3.279c0 4.142 3.357 7.5 7.5 7.5s7.5-3.358 7.5-7.5v-3.279h3.279c4.143 0 7.5-3.358 7.5-7.5s-3.357-7.5-7.5-7.5h-3.279v-3.279c0-4.142-3.357-7.5-7.5-7.5s-7.5 3.358-7.5 7.5v3.279h-3.279c-4.143 0-7.5 3.358-7.5 7.5s3.358 7.5 7.5 7.5z"/><path d="m305.712 102.003c-4.143 0-7.5 3.358-7.5 7.5s3.357 7.5 7.5 7.5h1.005c4.143 0 7.5-3.358 7.5-7.5s-3.357-7.5-7.5-7.5z"/><path d="m330.421 83.5c-4.143 0-7.5 3.358-7.5 7.5s3.357 7.5 7.5 7.5h1.005c4.143 0 7.5-3.358 7.5-7.5s-3.357-7.5-7.5-7.5z"/><path d="m274.092 406.199h-1.004c-4.143 0-7.5 3.358-7.5 7.5s3.357 7.5 7.5 7.5h1.004c4.143 0 7.5-3.358 7.5-7.5s-3.357-7.5-7.5-7.5z"/><path d="m134.092 274.833h-1.004c-4.143 0-7.5 3.358-7.5 7.5s3.357 7.5 7.5 7.5h1.004c4.143 0 7.5-3.358 7.5-7.5s-3.357-7.5-7.5-7.5z"/></g></svg>